<svg id="Group_25" data-name="Group 25" xmlns="http://www.w3.org/2000/svg" width="1600" height="341.193" viewBox="0 0 1600 341.193">
  <path id="path1" d="M104.685,0q54.946,0,91.058,39.764,32.85,36.286,32.842,85.881,0,49.825-34.69,87.081t-89.21,37.252q-54.729,0-89.423-37.252t-34.7-87.081q0-49.378,32.842-85.659Q49.526,0,104.685,0m-.111,29.938Q66.424,29.938,39,58.131T11.592,126.3a96.742,96.742,0,0,0,12.5,48.075,88.558,88.558,0,0,0,33.761,34.417,92.713,92.713,0,0,0,46.721,12.125,92.636,92.636,0,0,0,46.712-12.125,88.52,88.52,0,0,0,33.77-34.417,96.742,96.742,0,0,0,12.5-48.075q0-39.99-27.528-68.17T104.574,29.938" transform="translate(210.336 91.214)" fill="#a2bd34"/>
  <path id="path3" d="M77.438,45.7a25.165,25.165,0,0,0-4-8.932,25.607,25.607,0,0,0-7-6.9L-14.377-8.485,32.395,65.287a24.528,24.528,0,0,0,6.965,6.846,26.106,26.106,0,0,0,18.86,3.389,24.789,24.789,0,0,0,8.949-3.976,24.229,24.229,0,0,0,6.863-6.957A25.8,25.8,0,0,0,77.438,45.7" transform="translate(263.704 164.798)" fill="#d63d0d"/>
  <path id="path5" d="M0,0V331.054H30.594V223.511L150.33,331.054h43.06L55.066,206.146,185.743,92.205H140.827L30.594,188.6V0Z" transform="translate(0 3.597)" fill="#fff"/>
  <path id="path7" d="M0,5.156H30.594V47.765q18.354-24.472,40.641-36.6A99.842,99.842,0,0,1,119.744-.957q26.656,0,47.317,13.547a80.742,80.742,0,0,1,30.483,36.495q9.835,22.939,9.826,71.457V242.908H176.785V129.5q0-41.088-3.406-54.853-5.326-23.59-20.4-35.507t-39.33-11.912q-27.767,0-49.735,18.358A86.035,86.035,0,0,0,34.953,91.037q-4.355,17.7-4.36,64.687v87.183H0Z" transform="translate(475.577 91.737)" fill="#fff"/>
  <path id="path9" d="M0,5.156H31.25V39.905q13.986-20.551,29.5-30.7T93.084-.957q12.683,0,27.1,8.081L104.239,32.906q-9.618-4.151-16.178-4.147-15.288,0-29.5,12.559Q44.367,53.887,36.929,80.325q-5.671,20.333-5.679,82.168v80.414H0Z" transform="translate(892.447 91.737)" fill="#fff"/>
  <path id="path11" d="M216.837,267.228h30.6V-63.827h-30.6Z" transform="translate(1075.851 67.426)" fill="#fff"/>
  <path id="path13" d="M230.866,188.3H261.46V-49.455H230.866Z" transform="translate(1151.416 146.357)" fill="#fff"/>
  <path id="path15" d="M104.685,0q54.946,0,91.066,39.764,32.837,36.286,32.842,85.881,0,49.825-34.7,87.081t-89.21,37.252q-54.729,0-89.423-37.252t-34.7-87.081q0-49.378,32.842-85.651Q49.513,0,104.685,0m-.111,29.938q-38.151,0-65.564,28.193T11.6,126.309a96.621,96.621,0,0,0,12.5,48.066,88.442,88.442,0,0,0,33.761,34.417,92.666,92.666,0,0,0,46.713,12.134,92.643,92.643,0,0,0,46.712-12.134,88.521,88.521,0,0,0,33.77-34.417,96.621,96.621,0,0,0,12.5-48.066q0-39.99-27.529-68.178T104.574,29.938" transform="translate(1025.188 90.774)" fill="#fff"/>
  <path id="path17" d="M61.007,97.29h76.71V70.728H61.007V-17.964H30.413V70.728h-41.74V97.29h41.74v.18h-.06V242.278q0,34.337,15.923,51.515T89.464,310.97q28.188-.949,52.741-18.11l-9.094-23.67q-21.381,13-39.551,12.994-32.735,0-32.731-45v-1.326l.179.068Z" transform="translate(1457.795 25.059)" fill="#fff"/>
  <path id="path19" d="M61,97.29h76.71V70.728H61V-17.964H30.406V70.728H-11.325V97.29H30.406v.18h-.06V242.278q0,34.337,15.923,51.515T89.457,310.97q28.188-.949,52.741-18.11L133.1,269.19q-21.381,13-39.551,12.994-32.735,0-32.731-45v-1.326l.179.068Z" transform="translate(712.539 25.059)" fill="#fff"/>
  <path id="path21" d="M18.988,0A21.864,21.864,0,0,1,35.047,6.684a22.044,22.044,0,0,1,6.659,16.127,21.813,21.813,0,0,1-6.659,15.931,21.831,21.831,0,0,1-16.059,6.684A21.616,21.616,0,0,1,3.125,38.743a21.8,21.8,0,0,1-6.65-15.931A22.036,22.036,0,0,1,3.125,6.684,21.648,21.648,0,0,1,18.988,0" transform="translate(1378.494 0)" fill="#fff"/>
</svg>
