<svg xmlns="http://www.w3.org/2000/svg" viewBox="0 0 24 24" role="img" aria-label="Google">
  <path fill="#4285F4" d="M23.49 12.27c0-.79-.07-1.54-.2-2.27H12v4.29h6.48a5.53 5.53 0 0 1-2.4 3.63v3.01h3.88c2.27-2.09 3.53-5.17 3.53-8.66z"/>
  <path fill="#34A853" d="M12 24c3.24 0 5.95-1.07 7.93-2.9l-3.88-3.01c-1.08.72-2.46 1.15-4.05 1.15-3.11 0-5.75-2.1-6.69-4.92H1.3v3.09A12 12 0 0 0 12 24z"/>
  <path fill="#FBBC05" d="M5.31 14.32A7.2 7.2 0 0 1 4.95 12c0-.8.14-1.58.36-2.32V6.59H1.3A12 12 0 0 0 0 12c0 1.94.46 3.77 1.3 5.41l4.01-3.09z"/>
  <path fill="#EA4335" d="M12 4.77c1.76 0 3.34.61 4.58 1.8l3.43-3.43C17.94 1.28 15.23 0 12 0A12 12 0 0 0 1.3 6.59l4.01 3.09C6.25 6.87 8.89 4.77 12 4.77z"/>
</svg>
