<svg id="Group_24" data-name="Group 24" xmlns="http://www.w3.org/2000/svg" width="1600" height="341.193" viewBox="0 0 1600 341.193">
  <path id="path1" d="M104.451,0q54.843,0,90.886,39.689,32.788,36.218,32.78,85.719,0,49.731-34.624,86.917t-89.042,37.182q-54.626,0-89.255-37.182t-34.633-86.917q0-49.285,32.78-85.5Q49.4,0,104.451,0m-.11,29.882q-38.079,0-65.449,28.14T11.534,126.063A96.559,96.559,0,0,0,24.01,174.047a88.391,88.391,0,0,0,33.7,34.352,92.539,92.539,0,0,0,46.633,12.1,92.462,92.462,0,0,0,46.625-12.1,88.354,88.354,0,0,0,33.706-34.352,96.56,96.56,0,0,0,12.476-47.984q0-39.915-27.477-68.041t-65.33-28.14" transform="translate(209.976 91.685)" fill="#a2bd34"/>
  <path id="path3" d="M77.265,45.6a25.118,25.118,0,0,0-3.994-8.915A25.559,25.559,0,0,0,66.285,29.8L-14.377-8.485,32.307,65.148a24.481,24.481,0,0,0,6.952,6.833,26.057,26.057,0,0,0,18.825,3.383A24.742,24.742,0,0,0,67.016,71.4a24.184,24.184,0,0,0,6.85-6.944,25.751,25.751,0,0,0,3.4-18.85" transform="translate(263.732 164.895)" fill="#d63d0d"/>
  <path id="path5" d="M0,0V331.073H30.536V223.524l119.51,107.549h42.979L54.962,206.158,185.393,92.21H140.562l-110.026,96.4V0Z" transform="translate(0 3.59)" fill="#1d1d1b"/>
  <path id="path7" d="M0,5.145H30.536V47.673Q48.855,23.247,71.1,11.145a99.654,99.654,0,0,1,48.418-12.1q26.606,0,47.228,13.522A80.59,80.59,0,0,1,197.173,48.99q9.816,22.9,9.808,71.322V242.449H176.452v-113.2q0-41.011-3.4-54.749-5.316-23.546-20.363-35.44t-39.256-11.89q-27.715,0-49.642,18.323a85.873,85.873,0,0,0-28.9,45.367q-4.347,17.669-4.351,64.565v87.019H0Z" transform="translate(475.71 92.209)" fill="#1d1d1b"/>
  <path id="path9" d="M0,5.145H31.191V39.828Q45.15,19.317,60.639,9.182T92.909-.957q12.659,0,27.052,8.065L104.043,32.842Q94.443,28.7,87.895,28.7q-15.26,0-29.448,12.536Q44.283,53.784,36.859,80.172q-5.66,20.3-5.669,82.014v80.263H0Z" transform="translate(892.584 92.209)" fill="#1d1d1b"/>
  <path id="path11" d="M216.837,267.247h30.545V-63.827H216.837Z" transform="translate(1076.43 67.419)" fill="#1d1d1b"/>
  <path id="path13" d="M230.866,187.849H261.4v-237.3H230.866Z" transform="translate(1151.826 146.817)" fill="#1d1d1b"/>
  <path id="path15" d="M104.451,0q54.843,0,90.895,39.689,32.776,36.218,32.78,85.719,0,49.731-34.633,86.917t-89.042,37.182q-54.626,0-89.255-37.182t-34.633-86.917q0-49.285,32.78-85.49Q49.383,0,104.451,0m-.11,29.882q-38.079,0-65.441,28.14t-27.358,68.05a96.439,96.439,0,0,0,12.476,47.976,88.275,88.275,0,0,0,33.7,34.352,92.491,92.491,0,0,0,46.625,12.111A92.469,92.469,0,0,0,150.965,208.4a88.354,88.354,0,0,0,33.706-34.352,96.439,96.439,0,0,0,12.476-47.976q0-39.915-27.477-68.05t-65.33-28.14" transform="translate(1025.535 91.246)" fill="#1d1d1b"/>
  <path id="path17" d="M60.871,97.3h76.566V70.734H60.871v-88.7H30.335v88.7H-11.327V97.3H30.335v.18h-.059V242.3q0,34.34,15.893,51.518t43.106,17.178q28.135-.95,52.642-18.111l-9.077-23.672q-21.341,13-39.477,13-32.674,0-32.669-45.008v-1.326l.178.068Z" transform="translate(1458.084 25.045)" fill="#1d1d1b"/>
  <path id="path19" d="M60.864,97.3H137.43V70.734H60.864v-88.7H30.327v88.7H-11.325V97.3H30.327v.18h-.059V242.3q0,34.34,15.893,51.518t43.106,17.178q28.135-.95,52.642-18.111l-9.077-23.672q-21.341,13-39.477,13-32.674,0-32.669-45.008v-1.326l.178.068Z" transform="translate(712.679 25.045)" fill="#1d1d1b"/>
  <path id="path21" d="M18.946,0A21.822,21.822,0,0,1,34.974,6.672a22,22,0,0,1,6.646,16.1,21.772,21.772,0,0,1-6.646,15.9,21.79,21.79,0,0,1-16.029,6.672A21.575,21.575,0,0,1,3.112,38.67a21.764,21.764,0,0,1-6.638-15.9,22,22,0,0,1,6.638-16.1A21.608,21.608,0,0,1,18.946,0" transform="translate(1378.917 0)" fill="#1d1d1b"/>
</svg>
